<svg width="69" height="69" viewBox="0 0 69 69" fill="none" xmlns="http://www.w3.org/2000/svg">
<path d="M58.1902 37.8999C58.1238 35.4462 56.07 32.2793 55.93 30.6052C55.782 28.836 56.0518 26.8892 55.774 25.5141C55.0657 21.9903 52.5509 19.3249 50.3059 17.3323C48.4921 15.7229 46.8397 14.5601 44.0891 13.3943C41.2405 12.1875 37.485 11.442 34.3666 11.442C31.2482 11.442 26.4177 12.7781 24.0631 14.0983C19.5481 16.6283 17.9115 19.0717 14.8394 22.9176C12.8764 25.375 10.0406 28.6121 11.0023 32.7039C12.0377 37.1294 13.6566 37.008 14.5757 40.225C15.0794 41.9887 13.7467 43.7537 14.6043 46.7937C15.0386 48.3335 16.328 49.5854 17.473 50.7324C19.5944 52.8573 22.6257 54.7381 25.3762 55.9034C28.2227 57.1037 31.28 57.7221 34.3685 57.7221C37.4569 57.7221 40.5142 57.1037 43.3607 55.9034C47.0273 54.3575 48.8423 53.1233 50.9649 50.9984C53.0875 48.8734 53.1234 47.7485 54.5656 45.1282C55.8599 42.772 58.2444 39.901 58.1902 37.8999ZM16.4626 44.4315C16.5533 42.3285 17.9164 40.8119 17.2391 38.4752C16.9614 37.5174 16.4754 36.6908 15.9443 35.9129C18.1016 35.908 21.005 35.9056 22.9052 35.9221C22.9863 36.0325 23.0691 36.1447 23.1556 36.2594C26.0742 40.1518 24.1782 42.0668 23.8128 44.5199C20.6481 44.5541 17.8427 44.5943 16.4626 44.4315ZM43.2839 30.618C43.3978 31.937 43.6269 32.7972 43.8985 33.4854C41.444 33.4165 38.3377 33.5098 34.9708 33.5464C33.6041 30.7175 34.1991 28.5139 34.7564 27.1369C35.0457 26.4237 35.4587 25.339 35.7364 24.283C37.337 24.2958 38.8908 24.322 40.2344 24.3818C40.7058 24.4025 42.0317 24.5288 43.5769 24.6027C43.6415 26.1169 43.0391 27.7732 43.2839 30.618ZM38.1349 22.0952C37.432 22.0641 36.7395 22.0452 36.0543 22.0342C36.1262 19.7415 36.019 16.0927 35.9478 13.9488C36.8748 14.5534 38.0082 15.6107 39.4554 17.3134C40.6954 18.7727 42.0938 20.5737 42.9441 22.3917C41.2412 22.3008 39.4018 22.1514 38.1349 22.0952ZM33.718 13.994C33.735 15.8962 33.7496 18.9728 33.6979 21.3759C33.6936 21.573 33.6796 21.7945 33.6571 22.0306C31.6283 22.0446 29.6372 22.0989 27.6048 22.0989H26.8739C27.715 20.7793 28.4325 19.6451 29.5002 18.3811C31.4389 16.0872 32.7685 14.7694 33.718 13.994ZM25.1911 24.6466C25.291 24.5026 25.3878 24.3623 25.4822 24.2238C26.2521 24.2238 27.0779 24.2348 27.9647 24.2476C29.4923 24.2689 31.3554 24.2659 33.2734 24.2695C33.1792 24.6701 33.057 25.0636 32.9079 25.447C32.2641 27.0332 31.9078 28.9354 31.9943 30.9871C32.0321 31.8949 32.2989 32.7564 32.6466 33.5562C30.2183 33.5458 25.1387 33.3384 23.3279 33.325C22.8188 32.3269 22.4576 31.1897 22.5483 29.9591C22.6726 28.3193 24.2178 26.0467 25.1935 24.6466H25.1911ZM25.5005 36.5645C25.386 36.3851 25.2398 36.182 25.0741 35.9544C27.7485 35.9941 31.7976 35.9855 33.9537 35.9837C34.9282 37.6541 35.7571 38.942 35.5939 40.347C35.4581 41.5202 34.9239 42.7452 34.4976 43.7677C34.3983 44.0075 34.3075 44.2381 34.2253 44.4723C31.6995 44.4723 29.2511 44.4949 27.3648 44.4949H26.8477C26.8623 44.39 26.8794 44.285 26.9001 44.1789C27.5299 40.9888 27.3618 39.4776 25.5041 36.5645H25.5005ZM27.3472 46.7931C29.3924 46.7717 31.3993 46.7565 33.7838 46.7369C33.741 47.4722 33.7371 48.2092 33.7722 48.9448C33.8361 50.6055 33.7722 53.1922 33.7076 54.9962C32.5242 54.1525 31.3244 52.6944 29.4606 50.7427C28.2729 49.4988 27.3746 48.2024 26.9915 46.7967L27.3472 46.7931ZM35.9959 54.9206C36.0075 53.432 36.0105 51.4815 35.9703 49.9789C35.949 49.1858 35.9532 47.9534 36.1268 46.7144L37.1013 46.7064C38.624 46.693 40.9445 46.8089 42.8948 46.8028H42.9672C42.1852 47.9669 41.3161 49.126 40.397 50.3932C38.9036 52.454 37.1501 54.0915 35.9995 54.9206H35.9959ZM42.3752 44.6023C40.6997 44.5272 38.7208 44.4943 36.6902 44.4803C36.7109 44.4302 36.7316 44.3808 36.7511 44.332C37.2292 43.2491 37.7518 41.6849 37.9175 40.2573C38.0771 38.8834 37.2688 37.4302 36.3814 35.9788C39.4877 35.9654 42.8229 35.9373 45.021 35.9349C45.06 36.0441 45.0984 36.1576 45.1349 36.2765C46.0923 39.3812 45.9492 41.2902 44.725 43.8025C44.5902 44.0782 44.4499 44.3495 44.3041 44.6163C43.5988 44.6255 42.8826 44.6242 42.3752 44.6023ZM45.3883 30.6083C45.3883 28.8 45.9919 26.5104 46.0144 24.6521C46.2227 24.6521 46.4298 24.6447 46.6338 24.6374C49.941 24.5154 51.7999 24.5856 52.8359 24.671C53.7312 26.9649 52.7713 27.2455 53.1642 31.1909C53.2592 32.1445 53.4974 32.9412 53.7629 33.6886C51.376 33.5739 48.1461 33.6819 46.3683 33.6172C45.867 32.4233 45.3907 31.3135 45.3907 30.6077L45.3883 30.6083ZM48.5122 18.7923C49.991 19.9709 50.9076 20.9885 51.689 22.3179C49.9227 22.3789 47.4335 22.4558 45.6148 22.4662C44.697 20.0612 43.4362 18.3518 41.6882 16.5045C40.9147 15.6869 40.1046 14.8121 39.3488 14.1294C42.9538 14.7731 45.3462 16.2653 48.5146 18.7916L48.5122 18.7923ZM21.3119 19.8678C23.6873 17.7039 25.2903 15.0732 30.1434 14.1197C29.2158 15.0348 28.2443 16.208 27.3819 17.4434C26.1637 19.1925 25.3007 20.7415 24.4833 22.1251C22.2621 22.1623 20.1054 22.2301 18.5194 22.2874C19.3721 21.562 20.3094 20.7829 21.3144 19.8672L21.3119 19.8678ZM13.5299 30.626C13.7407 27.8397 14.6524 26.1114 16.0734 24.5612C17.0936 24.4276 19.1412 24.261 23.1464 24.2281C22.0696 25.7533 20.832 27.1851 20.4124 29.1587C20.1888 30.2038 20.0238 31.2 21.2108 33.3426L14.2364 33.4085C13.7595 32.5642 13.4507 31.6729 13.5299 30.626ZM20.8871 50.7427C18.0028 48.8893 17.3189 47.6496 16.9212 46.779C18.4487 46.7931 21.1749 46.815 24.0083 46.8114C24.7251 49.195 26.6144 51.1124 28.4971 53.0738C28.9916 53.5894 29.4612 54.0433 29.9034 54.4429C26.554 53.6238 24.4841 53.0541 20.8871 50.7427ZM45.0582 52.5364C43.3851 53.7016 41.5554 54.4514 39.643 54.8681C39.9122 54.5905 40.2179 54.2739 40.5669 53.9109C42.2272 52.1837 43.3406 50.345 44.2292 48.8356C44.5746 48.2475 45.0569 47.502 45.5332 46.7528C46.0162 46.7394 46.4011 46.7296 46.5753 46.7315C47.442 46.7394 48.9117 46.7357 50.2559 46.7284C49.1572 48.5953 48.567 50.093 45.0582 52.5364ZM54.3982 40.2738C53.987 41.677 52.9084 42.9813 51.756 44.5187C50.5166 44.6572 48.9342 44.4687 46.8531 44.5553C46.9536 44.3631 47.0358 44.1893 47.101 44.0343C48.5073 40.5934 48.2204 40.2908 47.4323 36.6017C47.3878 36.393 47.3306 36.1746 47.2642 35.9575H47.3044C51.51 36.1637 53.1106 35.794 54.5833 36.1088C54.8562 37.2356 54.9152 38.5106 54.3982 40.2707V40.2738Z" fill="#0000FF"/>
<path d="M41.0196 8.14219L40.5317 8.806L39.7212 8.56704L42.3677 5.13965L43.2393 5.39798L43.598 9.71276L42.7824 9.47417L42.7096 8.65592L41.0196 8.14219ZM42.5738 6.05869L41.4462 7.54179L42.687 7.91991L42.5738 6.05869Z" fill="#0000FF"/>
<path d="M51.0235 9.00751L49.1723 11.7681L50.4819 12.6454L50.0871 13.2355L48.1013 11.9058L50.3479 8.55217L51.0235 9.00751Z" fill="#0000FF"/>
<path d="M57.4579 15.6832L54.8967 17.8142L54.3835 17.1975L56.9448 15.0673L56.074 14.0195L56.616 13.5685L58.8673 16.2742L58.3253 16.7253L57.4579 15.6832Z" fill="#0000FF"/>
<path d="M60.7954 22.7898L61.4544 24.3926L60.7969 24.6603L60.1379 23.0575L59.2319 23.4298L59.9765 25.2417L59.3197 25.5093L58.2661 22.946L62.002 21.4113L63.0556 23.9747L62.4039 24.242L61.6594 22.4301L60.7954 22.7898Z" fill="#0000FF"/>
<path d="M60.7922 32.3274L62.2557 31.3995L62.2095 30.9497L60.6684 31.107L60.5882 30.3195L64.6039 29.9109L64.7657 31.496C64.8418 32.2452 64.2819 32.8003 63.6127 32.8685C63.0821 32.9226 62.5608 32.6235 62.3865 32.1494L60.8851 33.2329L60.7922 32.3274ZM63.5422 32.1351C63.89 32.0997 64.0929 31.8623 64.0657 31.5893L63.9818 30.7703L62.8363 30.8866L62.9195 31.7064C62.9477 31.9838 63.1832 32.1705 63.5421 32.1344L63.5422 32.1351Z" fill="#0000FF"/>
<path d="M59.9127 41.9122L60.0979 41.1047L63.2732 39.8295L60.5347 39.2013L60.7165 38.4089L64.6509 39.3119L64.465 40.1194L61.2946 41.4016L64.0272 42.0287L63.8467 42.8196L59.9127 41.9122Z" fill="#0000FF"/>
<path d="M59.6638 48.6395L58.7676 50.1241L58.1596 49.7572L59.0536 48.2734L58.2165 47.7703L57.2053 49.4485L56.5972 49.0815L58.0276 46.7074L61.4827 48.788L60.0516 51.1622L59.4482 50.7986L60.4587 49.1205L59.6638 48.6395Z" fill="#0000FF"/>
<path d="M54.6244 55.2092L53.3464 56.3798L52.8663 55.8561L54.1443 54.6855L53.4826 53.9631L52.043 55.2862L51.563 54.7625L53.6057 52.8902L56.3332 55.8657L54.284 57.7392L53.8042 57.2192L55.2482 55.8958L54.6244 55.2092Z" fill="#0000FF"/>
<path d="M45.6839 58.4985L47.0578 59.5546L47.4645 59.3577L46.7883 57.963L47.5032 57.6174L49.2642 61.2495L47.8344 61.9408C47.1567 62.2698 46.4437 61.9338 46.15 61.3283C45.917 60.8495 46.0182 60.2563 46.4048 59.9307L44.8725 58.8915L45.6839 58.4985ZM46.8088 61.0155C46.9617 61.33 47.2539 61.4396 47.5012 61.3196L48.2418 60.9604L47.7391 59.9238L46.9986 60.2831C46.7501 60.4084 46.6548 60.6937 46.812 61.0182L46.8088 61.0155Z" fill="#0000FF"/>
<path d="M39.9042 64.5436L39.1918 60.5706L39.9816 60.4289L40.6933 64.4027L39.9042 64.5436Z" fill="#0000FF"/>
<path d="M30.3219 60.6902L31.1467 60.7737L32.8079 63.7616L33.0906 60.9666L33.899 61.0483L33.4932 65.064L32.6685 64.9813L31.0014 61.9937L30.7198 64.7835L29.9166 64.7022L30.3219 60.6902Z" fill="#0000FF"/>
<path d="M23.6472 60.8659C24.0025 60.1234 23.7158 59.4376 23.1523 59.1681C22.6476 58.927 22.0705 58.9607 21.8501 59.4225L22.7386 59.8474L22.4394 60.4736L20.7885 59.6837C21.2272 58.5592 22.2518 57.8963 23.4752 58.4811C24.5335 58.9873 24.8851 60.0617 24.3415 61.198C23.8192 62.2906 22.7392 62.7527 21.71 62.2608C20.875 61.8609 20.3536 61.1051 20.6377 60.137L21.3557 60.4807C21.2858 60.8551 21.5132 61.3374 21.9594 61.5471C22.683 61.8963 23.2829 61.6282 23.6472 60.8659Z" fill="#0000FF"/>
<path d="M16.0706 56.0042C15.9883 56.0842 15.8908 56.1469 15.7838 56.1887C15.6769 56.2304 15.5627 56.2502 15.4479 56.247C15.3332 56.2439 15.2202 56.2177 15.1157 56.1701C15.0112 56.1225 14.9174 56.0545 14.8396 55.97C14.7619 55.8855 14.7019 55.7863 14.6632 55.6783C14.6244 55.5702 14.6077 55.4554 14.6141 55.3408C14.6205 55.2262 14.6498 55.114 14.7002 55.0109C14.7507 54.9078 14.8213 54.8158 14.9079 54.7405C15.0767 54.5936 15.296 54.5184 15.5193 54.5308C15.7427 54.5432 15.9524 54.6423 16.1038 54.8069C16.2553 54.9715 16.3365 55.1887 16.3303 55.4123C16.3241 55.6359 16.2309 55.8482 16.0706 56.0042V56.0042Z" fill="#0000FF"/>
<path d="M11.3567 50.0076L11.0011 49.3924C11.3967 49.1637 11.4398 48.7653 11.2607 48.4024C11.0597 47.9907 10.7174 47.8838 10.4433 48.0427C10.0938 48.2452 10.1999 48.6 10.3422 49.0711C10.5907 49.8978 10.4723 50.4138 9.94055 50.7252C9.35802 51.0616 8.68255 50.8191 8.29164 50.1435C7.8924 49.4546 7.95605 48.7583 8.61894 48.2501L8.97276 48.8602C8.68127 49.1097 8.67581 49.4545 8.87837 49.8039C9.06489 50.125 9.32511 50.242 9.55806 50.1067C9.79102 49.9714 9.82102 49.7558 9.64673 49.1974C9.48503 48.6817 9.28109 47.8793 10.0638 47.4255C10.7032 47.0563 11.436 47.3155 11.8569 48.0392C12.2896 48.7835 12.0851 49.6544 11.3567 50.0076Z" fill="#0000FF"/>
<path d="M5.46157 40.9988L8.71628 40.2878L8.88709 41.0711L5.63238 41.7821L5.9235 43.1128L5.2341 43.263L4.48293 39.8241L5.1716 39.6739L5.46157 40.9988Z" fill="#0000FF"/>
<path d="M6.64887 33.8212L4.03573 33.5605L4.1167 32.7418L6.58492 32.9912C6.69623 33.0056 6.8093 32.9976 6.91744 32.9675C7.02558 32.9375 7.1266 32.8861 7.21453 32.8163C7.30247 32.7466 7.37553 32.6599 7.42939 32.5615C7.48326 32.463 7.51684 32.3547 7.52815 32.2431C7.53947 32.1314 7.52828 32.0186 7.49526 31.9113C7.46223 31.8041 7.40804 31.7045 7.33589 31.6185C7.26373 31.5326 7.17507 31.4619 7.07515 31.4108C6.97523 31.3597 6.86608 31.3291 6.75415 31.3209L4.28539 31.0745L4.36928 30.266L6.98241 30.5267C7.79077 30.6084 8.3662 31.3967 8.27316 32.3174C8.18012 33.2381 7.45696 33.8992 6.64887 33.8212Z" fill="#0000FF"/>
<path d="M6.45597 22.7103C6.93168 21.6497 7.87556 21.1328 9.1196 21.6955C10.3636 22.2582 10.6059 23.3122 10.1344 24.3592L9.55848 25.6359L5.88287 23.9846L6.45597 22.7103ZM8.79266 22.4316C7.91366 22.037 7.39654 22.3363 7.0966 23.004L6.85679 23.5381L9.24809 24.6111L9.48789 24.0769C9.78315 23.4163 9.64726 22.8153 8.79266 22.4316Z" fill="#0000FF"/>
<path d="M11.2074 15.0274L14.2999 17.6197L13.7849 18.2344L10.6916 15.6422L11.2074 15.0274Z" fill="#0000FF"/>
<path d="M16.7187 12.3464C16.0737 11.399 16.2332 10.1705 17.2033 9.50996C18.1203 8.8834 19.3748 9.15192 20.0197 10.0994C20.6647 11.0469 20.4566 12.309 19.5352 12.9359C18.5651 13.5957 17.3637 13.2939 16.7187 12.3464ZM19.3707 10.5417C18.9588 9.93634 18.2653 9.73207 17.6438 10.1547C17.0222 10.5773 16.9489 11.3052 17.3608 11.9106C17.7727 12.5159 18.4721 12.7101 19.0943 12.286C19.7165 11.8619 19.7793 11.1421 19.3707 10.5417V10.5417Z" fill="#0000FF"/>
<path d="M25.3999 8.33615L26.0824 8.1406C26.2085 8.58041 26.5841 8.7197 26.9794 8.6344C27.4281 8.54021 27.6167 8.23508 27.5281 7.93086C27.4175 7.54319 27.0468 7.55876 26.5555 7.58203C25.6935 7.62088 25.2221 7.37964 25.0537 6.78981C24.8689 6.14348 25.2699 5.54782 26.0206 5.33347C26.7865 5.11509 27.4457 5.34689 27.7751 6.11394L27.0969 6.30917C26.9252 5.96643 26.5929 5.87658 26.2053 5.9872C25.8478 6.08611 25.6708 6.31282 25.745 6.57148C25.8193 6.83014 26.0217 6.91281 26.6055 6.88085C27.1451 6.8505 27.9728 6.8488 28.2213 7.71831C28.4232 8.42776 27.9926 9.07648 27.1853 9.30661C26.3591 9.54028 25.5639 9.12879 25.3999 8.33615Z" fill="#0000FF"/>
<path d="M33.7188 6.52025C33.7202 6.29265 33.8121 6.07494 33.974 5.91504C34.136 5.75513 34.3549 5.66612 34.5825 5.66759C34.8101 5.66906 35.0278 5.76088 35.1877 5.92286C35.3476 6.08484 35.4367 6.30371 35.4352 6.53131C35.4337 6.75892 35.3419 6.97662 35.1799 7.13653C35.0179 7.29643 34.7991 7.38544 34.5715 7.38398C34.3438 7.38251 34.1261 7.29069 33.9662 7.12871C33.8063 6.96673 33.7173 6.74786 33.7188 6.52025V6.52025Z" fill="#0000FF"/>
</svg>
