<svg width="83" height="136" viewBox="0 0 83 136" fill="none" xmlns="http://www.w3.org/2000/svg">
<path fill-rule="evenodd" clip-rule="evenodd" d="M41.5 136L83 14.1377L1.84473e-05 14.1377L41.5 136ZM41.5 129.738L80.1893 16.1289L2.81075 16.1289L41.5 129.738Z" fill="#EEFF41"/>
<path fill-rule="evenodd" clip-rule="evenodd" d="M41.637 18.1907C46.4027 18.1907 50.2661 14.386 50.2661 9.69272C50.2661 4.99941 46.4027 1.19474 41.637 1.19474C36.8712 1.19474 33.0078 4.99941 33.0078 9.69272C33.0078 14.386 36.8712 18.1907 41.637 18.1907ZM51.4792 9.69272C51.4792 15.0459 47.0727 19.3854 41.637 19.3854C36.2012 19.3854 31.7947 15.0459 31.7947 9.69272C31.7947 4.33958 36.2012 6.31404e-06 41.637 6.78203e-06C47.0727 7.25002e-06 51.4792 4.33958 51.4792 9.69272Z" fill="white"/>
<path fill-rule="evenodd" clip-rule="evenodd" d="M45.9261 20.7145L42.0658 24.5161C41.8289 24.7494 41.4449 24.7494 41.208 24.5161L37.3477 20.7145C37.1108 20.4812 37.1108 20.103 37.3477 19.8697C37.5846 19.6364 37.9687 19.6364 38.2056 19.8697L41.0303 22.6515L41.0303 18.7881L42.2435 18.7881L42.2435 22.6515L45.0683 19.8697C45.3051 19.6364 45.6892 19.6364 45.9261 19.8697C46.163 20.103 46.163 20.4812 45.9261 20.7145Z" fill="white"/>
<path fill-rule="evenodd" clip-rule="evenodd" d="M41.7021 58.3689C38.9104 58.3689 36.6472 60.5977 36.6472 63.347C36.6472 66.0963 38.9104 68.325 41.7021 68.325C44.4938 68.325 46.757 66.0963 46.757 63.347C46.757 60.5977 44.4938 58.3689 41.7021 58.3689ZM35.4341 63.347C35.4341 59.9378 38.2404 57.1742 41.7021 57.1742C45.1638 57.1742 47.9701 59.9378 47.9701 63.347C47.9701 66.7561 45.1638 69.5197 41.7021 69.5197C38.2404 69.5197 35.4341 66.7561 35.4341 63.347Z" fill="white"/>
<path d="M43.1176 63.3469C43.1176 64.1167 42.4839 64.7408 41.7022 64.7408C40.9205 64.7408 40.2869 64.1167 40.2869 63.3469C40.2869 62.5771 40.9205 61.9531 41.7022 61.9531C42.4839 61.9531 43.1176 62.5771 43.1176 63.3469Z" fill="white"/>
<path fill-rule="evenodd" clip-rule="evenodd" d="M37.413 54.1815L41.2733 50.3799C41.5102 50.1466 41.8942 50.1466 42.1311 50.3799L45.9914 54.1815C46.2283 54.4148 46.2283 54.793 45.9914 55.0263C45.7545 55.2596 45.3704 55.2596 45.1336 55.0263L42.3088 52.2445L42.3088 57.7715L41.0956 57.7715L41.0956 52.2445L38.2709 55.0263C38.034 55.2596 37.6499 55.2596 37.413 55.0263C37.1761 54.793 37.1761 54.4148 37.413 54.1815Z" fill="white"/>
<path fill-rule="evenodd" clip-rule="evenodd" d="M20.6099 115.019L12.1817 106.719L13.0396 105.874L21.4677 114.174L20.6099 115.019Z" fill="white"/>
<path fill-rule="evenodd" clip-rule="evenodd" d="M21.3121 106.719L12.884 115.019L12.0261 114.174L20.4543 105.874L21.3121 106.719Z" fill="white"/>
<path fill-rule="evenodd" clip-rule="evenodd" d="M21.3122 110.869H12.1816V109.674H21.3122V110.869Z" fill="white"/>
<path d="M17.8004 106.373C17.8004 106.946 17.3287 107.41 16.7469 107.41C16.165 107.41 15.6934 106.946 15.6934 106.373C15.6934 105.8 16.165 105.335 16.7469 105.335C17.3287 105.335 17.8004 105.8 17.8004 106.373Z" fill="white"/>
<path d="M17.8004 113.981C17.8004 114.554 17.3287 115.019 16.7469 115.019C16.165 115.019 15.6934 114.554 15.6934 113.981C15.6934 113.408 16.165 112.944 16.7469 112.944C17.3287 112.944 17.8004 113.408 17.8004 113.981Z" fill="white"/>
<path fill-rule="evenodd" clip-rule="evenodd" d="M31.9008 104.738C28.9387 104.738 26.5374 107.103 26.5374 110.02C26.5374 112.937 28.9387 115.302 31.9008 115.302C34.8629 115.302 37.2641 112.937 37.2641 110.02C37.2641 107.103 34.8629 104.738 31.9008 104.738ZM25.3242 110.02C25.3242 106.443 28.2686 103.543 31.9008 103.543C35.5329 103.543 38.4773 106.443 38.4773 110.02C38.4773 113.597 35.5329 116.496 31.9008 116.496C28.2686 116.496 25.3242 113.597 25.3242 110.02Z" fill="white"/>
<path d="M33.6568 110.02C33.6568 110.975 32.8706 111.749 31.9009 111.749C30.9312 111.749 30.145 110.975 30.145 110.02C30.145 109.065 30.9312 108.291 31.9009 108.291C32.8706 108.291 33.6568 109.065 33.6568 110.02Z" fill="white"/>
<path d="M49.5343 110.366C49.5343 110.939 49.0626 111.403 48.4808 111.403C47.8989 111.403 47.4272 110.939 47.4272 110.366C47.4272 109.793 47.8989 109.328 48.4808 109.328C49.0626 109.328 49.5343 109.793 49.5343 110.366Z" fill="white"/>
<path fill-rule="evenodd" clip-rule="evenodd" d="M41.6531 110.02L48.481 103.296L55.3089 110.02L48.481 116.744L41.6531 110.02ZM43.3688 110.02L48.481 115.055L53.5933 110.02L48.481 104.985L43.3688 110.02Z" fill="white"/>
<path fill-rule="evenodd" clip-rule="evenodd" d="M65.0607 104.738C62.0986 104.738 59.6973 107.103 59.6973 110.02C59.6973 112.937 62.0986 115.302 65.0607 115.302C68.0228 115.302 70.424 112.937 70.424 110.02C70.424 107.103 68.0228 104.738 65.0607 104.738ZM58.4841 110.02C58.4841 106.443 61.4285 103.543 65.0607 103.543C68.6928 103.543 71.6372 106.443 71.6372 110.02C71.6372 113.597 68.6928 116.496 65.0607 116.496C61.4285 116.496 58.4841 113.597 58.4841 110.02Z" fill="white"/>
<path d="M65.0607 106.216L65.138 109.888L68.4061 108.118L65.2152 110.02L68.4061 111.922L65.138 110.152L65.0607 113.824L64.9835 110.152L61.7153 111.922L64.9062 110.02L61.7153 108.118L64.9835 109.888L65.0607 106.216Z" fill="#C4C4C4"/>
<path fill-rule="evenodd" clip-rule="evenodd" d="M65.7236 108.889L68.1137 107.594L68.7201 108.629L66.3865 110.02L68.7201 111.411L68.1137 112.445L65.7236 111.151L65.6671 113.836H64.4542L64.3977 111.151L62.0076 112.445L61.4011 111.411L63.7347 110.02L61.4011 108.629L62.0076 107.594L64.3977 108.889L64.4542 106.203H65.6671L65.7236 108.889Z" fill="white"/>
</svg>
